<?xml version="1.0" standalone="no"?><!DOCTYPE svg PUBLIC "-//W3C//DTD SVG 1.1//EN" "http://www.w3.org/Graphics/SVG/1.1/DTD/svg11.dtd"><svg t="1497790112343" class="icon" style="" viewBox="0 0 1024 1024" version="1.1" xmlns="http://www.w3.org/2000/svg" p-id="2267" xmlns:xlink="http://www.w3.org/1999/xlink" width="16" height="16"><defs><style type="text/css"></style></defs><path d="M930.915 75.093H93.123c-50.096 0-90.847 40.717-90.847 90.734v613.877c0 50.055 40.75 90.771 90.847 90.771h303.906l115.009 114.839 114.934-114.839h303.942c50.096 0 90.81-40.717 90.81-90.771V165.827c0-50.018-40.714-90.734-90.81-90.734z m-1.904 130.815v536.797c0 25.885-20.77 46.94-46.269 46.94H589.014l-76.953 78.08-77.022-78.08H141.38c-25.569 0-46.339-21.056-46.339-46.94V205.908c0-25.885 20.77-46.94 46.339-46.94h741.36c25.499 0 46.269 21.056 46.269 46.94z" p-id="2268" fill="#cdcdcd"></path><path d="M643.782 456.877c0 33.278 27.088 60.402 60.366 60.402 33.314 0 60.402-27.124 60.402-60.402 0-33.278-27.088-60.366-60.402-60.366-33.278 0-60.366 27.088-60.366 60.366zM451.616 456.877c0 33.278 27.124 60.402 60.402 60.402s60.366-27.124 60.366-60.402c0-33.278-27.088-60.366-60.366-60.366s-60.402 27.088-60.402 60.366zM259.486 456.877c0 33.278 27.088 60.402 60.366 60.402s60.366-27.124 60.366-60.402c0-33.278-27.088-60.366-60.366-60.366s-60.366 27.088-60.366 60.366z" p-id="2269" fill="#cdcdcd"></path></svg>